<svg xmlns="http://www.w3.org/2000/svg" viewBox="0 0 500 500">
  <defs>
    <linearGradient id="grad1" x1="0%" y1="0%" x2="100%" y2="100%">
      <stop offset="0%" style="stop-color:#4d4f54;stop-opacity:1" />
      <stop offset="100%" style="stop-color:#252c3b;stop-opacity:1" />
    </linearGradient>
  </defs>
  <circle cx="250" cy="250" r="240" fill="url(#grad1)" />
  <path d="M250 120C180 120 120 180 120 250C120 320 180 380 250 380C320 380 380 320 380 250C380 180 320 120 250 120ZM330 250L250 330L170 250C168 248 168 244 170 242L244 168C246 166 250 166 252 168L330 246C332 248 332 252 330 254L256 328C254 330 250 330 248 328L170 250" fill="#beae97" />
  <circle cx="250" cy="190" r="15" fill="#beae97" />
  <circle cx="190" cy="270" r="15" fill="#beae97" />
  <circle cx="310" cy="270" r="15" fill="#beae97" />
  <line x1="250" y1="190" x2="190" y2="270" stroke="#beae97" stroke-width="6" />
  <line x1="250" y1="190" x2="310" y2="270" stroke="#beae97" stroke-width="6" />
  <line x1="190" y1="270" x2="310" y2="270" stroke="#beae97" stroke-width="6" />
</svg>